<?xml version="1.0" standalone="no"?>
<!DOCTYPE svg PUBLIC "-//W3C//DTD SVG 20010904//EN"
 "http://www.w3.org/TR/2001/REC-SVG-20010904/DTD/svg10.dtd">
<svg version="1.0" xmlns="http://www.w3.org/2000/svg"
 width="260.000000pt" height="260.000000pt" viewBox="0 0 260.000000 260.000000"
 preserveAspectRatio="xMidYMid meet">
<metadata>
Created by potrace 1.11, written by Peter Selinger 2001-2013
</metadata>
<g transform="translate(0.000000,260.000000) scale(0.100000,-0.100000)"
fill="#000000" stroke="none">
<path d="M0 2149 l0 -451 30 6 c17 3 30 1 30 -4 0 -6 -13 -10 -30 -10 l-30 0
0 -68 0 -68 38 4 c28 2 33 1 22 -7 -8 -6 -25 -11 -37 -11 l-23 0 0 -360 0
-360 489 0 488 0 6 47 c4 27 7 102 8 168 1 118 1 120 -22 125 -24 6 -24 8 -27
135 -2 96 1 130 10 137 7 4 34 8 61 8 l47 0 0 90 c0 73 -3 90 -15 90 -11 0
-15 12 -15 51 l0 51 -72 -5 c-60 -5 -65 -4 -28 3 25 5 59 13 75 19 26 8 19 10
-45 11 -57 2 -68 4 -45 10 17 4 48 8 70 9 34 1 41 4 41 21 0 13 -7 20 -18 20
-10 0 -18 5 -18 10 0 6 10 10 21 10 36 0 3 27 -42 35 -21 4 -41 10 -44 15 -3
4 -25 11 -50 14 -24 4 -47 11 -50 16 -3 4 -23 11 -45 15 -22 4 -42 11 -46 16
-3 5 -15 9 -27 10 -12 0 -17 3 -10 6 11 4 102 -21 168 -47 55 -21 158 -50 163
-45 9 8 -18 33 -54 50 -20 9 -33 19 -30 22 3 3 21 -4 40 -15 19 -11 37 -18 40
-15 3 4 6 32 6 63 0 156 190 283 353 236 69 -20 132 -67 175 -130 26 -39 32
-58 32 -100 0 -29 3 -55 6 -58 3 -4 21 0 41 8 19 8 32 10 28 5 -3 -6 -13 -11
-21 -11 -8 0 -14 -4 -14 -9 0 -5 -9 -11 -20 -14 -29 -8 -24 -27 8 -28 22 -1
23 -3 5 -6 -25 -5 -40 -33 -18 -33 8 0 15 -4 15 -10 0 -5 -6 -10 -13 -10 -7 0
-13 -9 -13 -20 0 -16 7 -20 36 -21 19 -1 49 -5 65 -9 23 -6 14 -8 -40 -10 -67
-2 -69 -2 -35 -13 l35 -11 -32 -4 c-32 -3 -33 -5 -33 -47 0 -29 -5 -47 -15
-53 -13 -7 -15 -25 -13 -98 l3 -89 45 -2 c25 -1 51 -2 58 -2 10 -1 12 -31 10
-133 l-3 -133 -27 -3 c-28 -3 -28 -4 -28 -81 0 -43 3 -119 6 -169 l7 -92 483
0 484 0 0 359 0 359 -32 8 -33 8 33 3 32 4 0 65 c0 62 -1 64 -26 64 -14 0 -23
4 -20 9 3 5 15 7 26 4 20 -5 20 0 20 446 l0 451 -1300 0 -1300 0 0 -451z m455
31 c3 -5 1 -10 -4 -10 -6 0 -11 5 -11 10 0 6 2 10 4 10 3 0 8 -4 11 -10z m92
-46 c-6 -6 -47 9 -47 17 0 5 11 3 25 -3 14 -6 24 -13 22 -14z m1563 16 c0 -5
-5 -10 -11 -10 -5 0 -7 5 -4 10 3 6 8 10 11 10 2 0 4 -4 4 -10z m-1503 -46
c-6 -6 -47 9 -47 17 0 5 11 3 25 -3 14 -6 24 -13 22 -14z m1443 16 c0 -5 -5
-10 -11 -10 -5 0 -7 5 -4 10 3 6 8 10 11 10 2 0 4 -4 4 -10z m-1690 -51 c56
-19 71 -27 45 -23 -22 3 -44 9 -50 14 -5 5 -27 11 -47 15 -21 4 -38 11 -38 16
0 11 -9 13 90 -22z m307 5 c-6 -6 -47 9 -47 17 0 5 11 3 25 -3 14 -6 24 -13
22 -14z m1323 16 c0 -5 -5 -10 -11 -10 -5 0 -7 5 -4 10 3 6 8 10 11 10 2 0 4
-4 4 -10z m355 0 c3 -5 -3 -10 -15 -10 -12 0 -18 5 -15 10 3 6 10 10 15 10 5
0 12 -4 15 -10z m-60 -17 c-11 -3 -24 -9 -30 -13 -5 -4 -26 -11 -45 -15 -19
-4 -40 -12 -47 -17 -7 -5 -20 -8 -30 -5 -20 4 -23 3 72 35 33 11 69 20 80 20
l20 0 -20 -5z m-1487 -59 c29 -15 51 -28 49 -30 -6 -6 -47 8 -47 16 0 5 -13
11 -30 15 -16 4 -30 10 -30 15 0 5 -13 11 -30 15 -16 4 -30 11 -30 15 0 10 41
-6 118 -46z m1131 42 c-2 -2 -15 -7 -29 -10 l-25 -7 25 15 c21 12 42 14 29 2z
m-1371 -47 c135 -43 130 -41 109 -46 -10 -3 -23 0 -30 5 -7 6 -29 13 -50 17
-20 4 -39 11 -42 15 -3 5 -23 11 -45 15 -22 4 -42 11 -46 16 -8 13 -2 12 104
-22z m1312 21 c0 -5 -4 -10 -9 -10 -5 0 -18 -3 -28 -6 -16 -6 -16 -5 2 9 23
19 35 21 35 7z m225 -17 c-11 -3 -24 -9 -30 -13 -5 -5 -27 -11 -48 -15 -20 -4
-39 -11 -42 -15 -3 -5 -24 -11 -48 -15 -23 -4 -46 -11 -52 -15 -5 -4 -26 -11
-45 -15 -19 -4 -39 -11 -45 -15 -5 -5 -28 -11 -50 -14 -22 -3 -33 -3 -25 0 8
3 24 9 35 14 11 4 54 18 95 30 41 13 84 26 95 30 60 23 143 48 160 48 l20 0
-20 -5z m-285 -13 c0 -5 -4 -10 -9 -10 -5 0 -18 -3 -28 -6 -16 -6 -16 -5 2 9
23 19 35 21 35 7z m-1630 -30 c12 -8 9 -10 -13 -10 -16 0 -26 4 -22 10 8 12
16 12 35 0z m2290 0 c0 -5 -12 -10 -27 -9 -25 0 -26 1 -8 9 27 12 35 12 35 0z
m-2212 -17 c-10 -2 -28 -2 -40 0 -13 2 -5 4 17 4 22 1 32 -1 23 -4z m2140 0
c-10 -2 -28 -2 -40 0 -13 2 -5 4 17 4 22 1 32 -1 23 -4z m-2048 -13 c11 -7 6
-10 -22 -10 -20 0 -40 5 -43 10 -8 13 45 13 65 0z m1975 0 c-3 -5 -23 -10 -43
-10 -28 0 -33 3 -22 10 20 13 73 13 65 0z m-1912 -17 c-7 -2 -21 -2 -30 0 -10
3 -4 5 12 5 17 0 24 -2 18 -5z m1820 0 c-7 -2 -21 -2 -30 0 -10 3 -4 5 12 5
17 0 24 -2 18 -5z m-1625 -30 c-10 -2 -26 -2 -35 0 -10 3 -2 5 17 5 19 0 27
-2 18 -5z m1430 0 c-10 -2 -26 -2 -35 0 -10 3 -2 5 17 5 19 0 27 -2 18 -5z
m-1338 -13 c12 -7 8 -10 -15 -10 -16 0 -37 5 -45 10 -12 7 -8 10 15 10 17 0
37 -5 45 -10z m985 0 c-3 -5 -13 -10 -21 -10 -8 0 -12 5 -9 10 3 6 13 10 21
10 8 0 12 -4 9 -10z m290 0 c-3 -5 -23 -10 -43 -10 -28 0 -33 3 -22 10 20 13
73 13 65 0z m-1095 -31 c17 -11 -29 -7 -115 10 -46 9 -44 9 25 5 41 -3 82 -10
90 -15z m998 14 c-10 -2 -28 -2 -40 0 -13 2 -5 4 17 4 22 1 32 -1 23 -4z
m-1683 -13 c21 -5 4 -8 -57 -9 -53 -1 -88 3 -88 9 0 11 100 11 145 0z m1605 0
c-20 -13 -73 -13 -65 0 3 6 23 10 43 10 28 0 33 -3 22 -10z m760 0 c0 -6 -35
-10 -87 -9 -62 1 -79 4 -58 9 45 11 145 11 145 0z m-2152 -17 c-26 -2 -71 -2
-100 0 -29 2 -8 3 47 3 55 0 79 -1 53 -3z m550 0 c-10 -2 -28 -2 -40 0 -13 2
-5 4 17 4 22 1 32 -1 23 -4z m740 0 c-10 -2 -28 -2 -40 0 -13 2 -5 4 17 4 22
1 32 -1 23 -4z m615 0 c-29 -2 -77 -2 -105 0 -29 2 -6 3 52 3 58 0 81 -1 53
-3z m-1638 -13 c21 -5 4 -8 -55 -8 -47 0 -96 4 -110 8 -33 11 124 11 165 0z
m1425 0 c-14 -4 -63 -8 -110 -8 -59 0 -76 3 -55 8 41 11 198 11 165 0z m-1212
-17 c-26 -2 -71 -2 -100 0 -29 2 -8 3 47 3 55 0 79 -1 53 -3z m945 0 c-29 -2
-77 -2 -105 0 -29 2 -6 3 52 3 58 0 81 -1 53 -3z m-1015 -60 c-27 -2 -69 -2
-95 0 -27 2 -5 3 47 3 52 0 74 -1 48 -3z m1070 0 c-27 -2 -69 -2 -95 0 -27 2
-5 3 47 3 52 0 74 -1 48 -3z m-1258 -13 c-14 -4 -61 -8 -105 -8 -54 0 -72 3
-55 8 14 4 61 8 105 8 54 0 72 -3 55 -8z m1515 0 c21 -5 6 -8 -50 -8 -44 0
-93 4 -110 8 -21 5 -6 8 50 8 44 0 94 -4 110 -8z m-1767 -17 c-26 -2 -71 -2
-100 0 -29 2 -8 3 47 3 55 0 79 -1 53 -3z m1330 0 c-10 -2 -26 -2 -35 0 -10 3
-2 5 17 5 19 0 27 -2 18 -5z m630 0 c-27 -2 -69 -2 -95 0 -27 2 -5 3 47 3 52
0 74 -1 48 -3z m-1468 -13 c-9 -4 -45 -11 -80 -14 -47 -4 -54 -3 -23 3 24 4
46 10 49 14 4 4 21 7 38 7 23 -1 27 -3 16 -10z m930 0 c12 -7 8 -10 -15 -10
-16 0 -37 5 -45 10 -12 7 -8 10 15 10 17 0 37 -5 45 -10z m160 -31 c17 -11
-22 -7 -100 10 -42 9 -41 10 20 5 35 -3 71 -10 80 -15z m-1250 1 c-8 -5 -28
-10 -45 -10 -23 0 -27 3 -15 10 8 5 29 10 45 10 23 0 27 -3 15 -10z m-92 -17
c-10 -2 -26 -2 -35 0 -10 3 -2 5 17 5 19 0 27 -2 18 -5z m1441 -2 c10 -6 -1
-8 -30 -4 -24 3 -46 7 -48 9 -10 9 65 3 78 -5z m-1632 -27 c-3 -3 -12 -4 -19
-1 -8 3 -5 6 6 6 11 1 17 -2 13 -5z m-42 -14 c-3 -5 -20 -10 -36 -10 -18 0
-28 4 -24 10 3 6 20 10 36 10 18 0 28 -4 24 -10z m1900 0 c4 -6 -6 -10 -24
-10 -16 0 -33 5 -36 10 -4 6 6 10 24 10 16 0 33 -4 36 -10z m-1987 -17 c-10
-2 -28 -2 -40 0 -13 2 -5 4 17 4 22 1 32 -1 23 -4z m2060 0 c-10 -2 -28 -2
-40 0 -13 2 -5 4 17 4 22 1 32 -1 23 -4z m-2133 -13 c-3 -5 -20 -10 -36 -10
-18 0 -28 4 -24 10 3 6 20 10 36 10 18 0 28 -4 24 -10z m2220 0 c8 -13 -35
-13 -55 0 -11 7 -7 10 17 10 17 0 35 -4 38 -10z m-2307 -17 c-10 -2 -28 -2
-40 0 -13 2 -5 4 17 4 22 1 32 -1 23 -4z m2380 0 c-10 -2 -28 -2 -40 0 -13 2
-5 4 17 4 22 1 32 -1 23 -4z"/>
<path d="M1255 2171 c-16 -4 -41 -13 -55 -20 -34 -18 -110 -92 -110 -108 0
-17 425 -19 435 -2 4 5 -15 32 -42 58 -65 66 -146 91 -228 72z"/>
<path d="M1070 1934 c0 -53 2 -56 30 -67 38 -15 38 -22 -2 -37 -26 -10 -29
-14 -15 -17 10 -3 27 3 38 13 18 17 21 16 68 -6 33 -15 70 -23 113 -24 56 -2
74 3 156 42 l92 44 0 54 0 54 -240 0 -240 0 0 -56z"/>
<path d="M1528 1863 c-24 -6 -23 -23 2 -23 11 0 20 7 20 15 0 8 -1 14 -2 14
-2 -1 -11 -3 -20 -6z"/>
<path d="M1070 1850 c0 -5 7 -10 15 -10 8 0 15 5 15 10 0 6 -7 10 -15 10 -8 0
-15 -4 -15 -10z"/>
<path d="M1490 1827 c24 -24 60 -31 60 -13 0 9 -6 16 -12 16 -7 0 -24 3 -38 6
-22 6 -23 5 -10 -9z"/>
<path d="M1070 1770 c0 -5 9 -10 19 -10 11 0 23 5 26 10 4 6 -5 10 -19 10 -14
0 -26 -4 -26 -10z"/>
<path d="M1500 1770 c0 -5 11 -10 25 -10 14 0 25 5 25 10 0 6 -11 10 -25 10
-14 0 -25 -4 -25 -10z"/>
<path d="M1148 1752 l-78 -15 0 -39 0 -38 84 0 c47 0 87 3 89 8 3 4 7 27 8 52
4 53 4 53 -103 32z"/>
<path d="M1360 1727 c0 -24 6 -49 13 -53 6 -5 49 -8 95 -6 l82 4 0 32 0 32
-72 12 c-40 6 -83 15 -95 18 -21 6 -23 3 -23 -39z"/>
<path d="M1100 1590 l0 -30 210 0 210 0 0 30 0 30 -210 0 -210 0 0 -30z"/>
<path d="M1100 1481 l0 -39 143 -7 c78 -4 171 -5 207 -3 l65 3 3 43 3 42 -210
0 -211 0 0 -39z"/>
<path d="M987 1393 c-4 -3 -7 -21 -7 -40 l0 -33 330 0 330 0 0 40 0 40 -323 0
c-178 0 -327 -3 -330 -7z"/>
<path d="M984 1266 c-7 -19 -1 -62 9 -58 4 1 151 2 327 2 l320 0 0 35 0 35
-325 0 c-273 0 -327 -2 -331 -14z"/>
<path d="M1037 1153 c-4 -3 -7 -47 -7 -97 0 -94 -16 -564 -26 -763 l-6 -113
-499 0 -499 0 0 -90 0 -90 1300 0 1300 0 0 90 0 90 -489 0 c-270 0 -492 4
-495 8 -3 5 -10 148 -17 318 -6 170 -14 386 -18 479 l-6 170 -266 3 c-146 1
-268 -1 -272 -5z m344 -142 c21 -17 24 -30 27 -100 l4 -81 -96 0 c-70 0 -96 3
-97 13 0 6 0 41 1 77 2 85 23 110 91 110 31 0 55 -6 70 -19z"/>
<path d="M0 780 l0 -30 490 0 490 0 0 30 0 30 -490 0 -490 0 0 -30z"/>
<path d="M1637 803 c-4 -3 -7 -39 -7 -80 l0 -73 485 0 485 0 0 80 0 80 -478 0
c-263 0 -482 -3 -485 -7z"/>
<path d="M0 685 l0 -35 490 0 490 0 0 35 0 35 -490 0 -490 0 0 -35z"/>
<path d="M0 555 l0 -35 485 0 485 0 0 35 0 35 -485 0 -485 0 0 -35z"/>
<path d="M1640 555 l0 -35 480 0 480 0 0 35 0 35 -480 0 -480 0 0 -35z"/>
<path d="M0 390 l0 -40 483 2 482 3 3 38 3 37 -485 0 -486 0 0 -40z"/>
<path d="M1644 416 c-3 -8 -4 -25 -2 -38 l3 -23 478 -3 477 -2 0 40 0 40 -475
0 c-403 0 -476 -2 -481 -14z"/>
</g>
</svg>
