<?xml version="1.0" encoding="utf-8"?>
<!-- Generator: Adobe Illustrator 23.0.6, SVG Export Plug-In . SVG Version: 6.00 Build 0)  -->
<svg version="1.1" id="Layer_1" xmlns="http://www.w3.org/2000/svg" xmlns:xlink="http://www.w3.org/1999/xlink" x="0px" y="0px"
	 viewBox="0 0 298.21 64.6" style="enable-background:new 0 0 298.21 64.6;" xml:space="preserve">
<style type="text/css">
	.st0{fill:#FFFFFF;}
	.st1{fill:none;}
	.st2{fill:#999999;}
	.st3{font-family:'FranklinGothic-Medium';}
	.st4{font-size:17.9987px;}
	.st5{letter-spacing:1;}
</style>
<g>
	<path class="st0" d="M5.29,31.5V14.31h9.44c1.13,0,2.07,0.12,2.82,0.35s1.39,0.73,1.94,1.47c0.55,0.75,0.82,1.62,0.82,2.63
		c0,0.95-0.28,1.77-0.83,2.48c-0.55,0.7-1.32,1.15-2.29,1.34c1.21,0.21,2.12,0.7,2.75,1.47c0.62,0.77,0.93,1.69,0.93,2.75
		c0,1.33-0.43,2.44-1.3,3.34s-2.21,1.35-4.01,1.35H5.29z M9.59,21.52h3.78c0.77,0,1.38-0.23,1.83-0.69
		c0.45-0.46,0.67-1.05,0.67-1.76c0-0.79-0.26-1.37-0.77-1.74c-0.51-0.37-1.11-0.56-1.8-0.56H9.59V21.52z M9.59,28.92h4
		c0.85,0,1.52-0.22,2.01-0.67c0.49-0.45,0.74-1.05,0.74-1.8c0-0.72-0.25-1.31-0.75-1.77c-0.5-0.46-1.16-0.69-1.98-0.69H9.59V28.92z
		 M40.63,31.5h-4.64l-2.67-7.06h-4.36v7.06h-4.47V14.31h10.19c2.07,0,3.6,0.47,4.57,1.4c0.97,0.94,1.46,2.15,1.46,3.63
		c0,2.21-1.03,3.73-3.1,4.56L40.63,31.5z M28.96,21.95h3.85c1.12,0,1.95-0.24,2.49-0.7c0.55-0.47,0.82-1.12,0.82-1.94
		c0-0.76-0.27-1.37-0.81-1.83c-0.54-0.47-1.29-0.7-2.25-0.7h-4.11V21.95z M50.43,31.5H44.6V14.31h5.84V31.5z M70.79,22.71v8.79
		h-2.74l-0.94-2.32c-1,1.72-2.55,2.58-4.65,2.58c-2.34,0-5.46-0.89-6.61-2.67c-1.15-1.78-1.73-3.84-1.73-6.18
		c0-2.48,0.64-4.57,1.93-6.29c1.29-1.72,4.46-2.58,6.78-2.58c1.73,0,4.52,0.5,5.64,1.51c1.12,1,1.82,2.25,2.12,3.75l-4.06,0.48
		c-0.5-2.1-1.71-3.15-3.61-3.15c-1.22,0-2.21,0.5-2.98,1.49c-0.77,0.99-1.15,2.52-1.15,4.57c0,4.34,1.36,6.51,4.08,6.51
		c1.06,0,1.93-0.37,2.63-1.1c0.69-0.73,1.04-1.7,1.04-2.9h-3.55v-2.49H70.79z M90.59,31.5h-4.47v-7.47h-6.56v7.47H75.1V14.31h4.47
		v7.07h6.56v-7.07h4.47V31.5z M103.91,31.5h-6.06V16.97h-4.57v-2.66h15.21v2.66h-4.57V31.5z M128.35,31.5h-4.47V14.31h9.78
		c2.01,0,3.49,0.51,4.46,1.52c0.97,1.01,1.46,2.21,1.46,3.58c0,1.57-0.53,2.84-1.57,3.82c-1.05,0.97-2.38,1.46-3.99,1.46h-5.66V31.5
		z M128.35,22.03h3.66c0.96,0,1.69-0.24,2.19-0.71c0.5-0.47,0.76-1.1,0.76-1.88c0-0.71-0.23-1.31-0.7-1.81
		c-0.47-0.5-1.31-0.76-2.53-0.76h-3.39V22.03z M157.96,31.5h-4.68l-1.37-4.09h-6.61l-1.35,4.09h-4.01l5.7-17.19h6.55L157.96,31.5z
		 M151.08,24.92l-2.51-7.67l-2.51,7.67H151.08z M176.96,31.5h-4.64l-2.67-7.06h-4.36v7.06h-4.47V14.31h10.19
		c2.07,0,3.6,0.47,4.57,1.4c0.97,0.94,1.46,2.15,1.46,3.63c0,2.21-1.03,3.73-3.1,4.56L176.96,31.5z M165.29,21.95h3.85
		c1.12,0,1.95-0.24,2.49-0.7c0.55-0.47,0.82-1.12,0.82-1.94c0-0.76-0.27-1.37-0.81-1.83c-0.54-0.47-1.29-0.7-2.25-0.7h-4.11V21.95z
		 M197.15,31.5h-4.68l-1.37-4.09h-6.61l-1.35,4.09h-4.01l5.7-17.19h6.55L197.15,31.5z M190.27,24.92l-2.51-7.67l-2.51,7.67H190.27z
		 M199.93,31.5V14.31h9.07c2.34,0,4.22,0.83,5.64,2.49c1.42,1.66,2.13,3.7,2.13,6.14s-0.73,4.47-2.19,6.11
		c-1.46,1.64-3.55,2.46-6.27,2.46H199.93z M204.48,28.97h2.58c1.39,0,2.56-0.52,3.53-1.56c0.96-1.04,1.45-2.59,1.45-4.65
		c0-1.68-0.42-3.1-1.26-4.26c-0.84-1.16-1.96-1.75-3.34-1.75h-2.95V28.97z M226.27,31.5h-5.84V14.31h5.84V31.5z M246.63,22.71v8.79
		h-2.74l0.42-2.32c-1,1.72-4.59,2.8-7.38,2.58c-2.45-0.19-4.09-0.89-5.25-2.67c-1.15-1.78-1.73-3.84-1.73-6.18
		c0-5.25,3.45-8.87,8.71-8.87c1.73,0,4.52,0.5,5.64,1.51c1.12,1,1.82,2.25,2.12,3.75l-4.06,0.48c-0.5-2.1-1.71-3.15-3.61-3.15
		c-1.22,0-2.21,0.5-2.98,1.49c-0.77,0.99-1.15,2.52-1.15,4.57c0,4.34,1.36,6.51,4.08,6.51c1.06,0,1.93-0.37,2.63-1.1
		c0.69-0.73,1.04-1.7,1.04-2.9h-3.55v-2.49H246.63z M270.54,31.5h-4.53V16.45l-4.76,15.05h-1.63l-4.78-15.05V31.5h-3.9V14.31h6.22
		l3.6,11.07l3.54-11.07h6.24V31.5z M273.32,27.36l4.38-0.64c0.36,1.71,1.75,2.56,4.16,2.56c1.88,0,4.53-1.34,3.02-3.58
		c-0.58-0.86-2.03-1.04-2.95-1.26c-1.75-0.42-3.71-0.58-5.33-1.41c-1.49-0.76-2.37-2.21-2.37-3.89c0-1.54,0.57-2.77,1.71-3.7
		c1.14-0.93,3.97-1.39,5.75-1.39c1.48,0,4.17,0.32,5.33,0.97c1.16,0.65,1.9,1.56,2.22,2.75l-4.32,0.73
		c-0.45-1.3-1.51-1.95-3.17-1.95c-0.96,0-1.7,0.2-2.21,0.61c-0.8,0.64-1.04,1.81-0.33,2.61c0.96,1.09,2.98,1.16,4.31,1.36
		c1.57,0.24,3.2,0.52,4.54,1.43c1.23,0.85,1.88,2.3,1.88,3.77c0,1.69-0.64,3.02-1.91,3.99c-1.27,0.97-4.29,1.45-6.31,1.45
		c-1.7,0-4.57-0.36-5.85-1.07C274.59,29.98,273.74,28.87,273.32,27.36z"/>
	<rect x="4.6" y="39.44" class="st1" width="286.3" height="29.06"/>
	<text transform="matrix(1 0 0 1 4.5953 51.4558)" class="st2 st3 st4 st5">home automation</text>
</g>
</svg>
