<?xml version="1.0" encoding="utf-8"?>
<!-- Generator: Adobe Illustrator 23.0.6, SVG Export Plug-In . SVG Version: 6.00 Build 0)  -->
<svg version="1.1" id="Layer_1" xmlns="http://www.w3.org/2000/svg" xmlns:xlink="http://www.w3.org/1999/xlink" x="0px" y="0px"
	 viewBox="0 0 180.09 170.81" style="enable-background:new 0 0 180.09 170.81;" xml:space="preserve">
<style type="text/css">
	.st0{fill:#FFFFFF;}
</style>
<g>
	<path class="st0" d="M400.71,67.92V50.73h9.44c1.13,0,2.07,0.12,2.82,0.35s1.39,0.73,1.94,1.47c0.55,0.75,0.82,1.62,0.82,2.63
		c0,0.95-0.28,1.77-0.83,2.48c-0.55,0.7-1.32,1.15-2.29,1.34c1.21,0.21,2.12,0.7,2.75,1.47c0.62,0.77,0.93,1.69,0.93,2.75
		c0,1.33-0.43,2.44-1.3,3.34c-0.87,0.9-2.21,1.35-4.01,1.35H400.71z M405.01,57.95h3.78c0.77,0,1.38-0.23,1.83-0.69
		c0.45-0.46,0.67-1.05,0.67-1.76c0-0.79-0.26-1.37-0.77-1.74c-0.51-0.37-1.11-0.56-1.8-0.56h-3.72V57.95z M405.01,65.34h4
		c0.85,0,1.52-0.22,2.01-0.67c0.49-0.45,0.74-1.05,0.74-1.8c0-0.72-0.25-1.31-0.75-1.77c-0.5-0.46-1.16-0.69-1.98-0.69h-4.02V65.34z
		 M436.04,67.92h-4.64l-2.67-7.06h-4.36v7.06h-4.47V50.73h10.19c2.07,0,3.6,0.47,4.57,1.4c0.97,0.94,1.46,2.15,1.46,3.63
		c0,2.21-1.03,3.73-3.1,4.56L436.04,67.92z M424.37,58.38h3.85c1.12,0,1.95-0.24,2.49-0.7c0.55-0.47,0.82-1.12,0.82-1.94
		c0-0.76-0.27-1.37-0.81-1.83c-0.54-0.47-1.29-0.7-2.25-0.7h-4.11V58.38z M445.85,67.92h-5.84V50.73h5.84V67.92z M466.2,59.13v8.79
		h-2.74l-0.94-2.32c-1,1.72-2.55,2.58-4.65,2.58c-2.34,0-5.46-0.89-6.61-2.67c-1.15-1.78-1.73-3.84-1.73-6.18
		c0-2.48,0.64-4.57,1.93-6.29c1.29-1.72,4.46-2.58,6.78-2.58c1.73,0,4.52,0.5,5.64,1.51c1.12,1,1.82,2.25,2.12,3.75l-4.06,0.48
		c-0.5-2.1-1.71-3.15-3.61-3.15c-1.22,0-2.21,0.5-2.98,1.49c-0.77,0.99-1.15,2.52-1.15,4.57c0,4.34,1.36,6.51,4.08,6.51
		c1.06,0,1.93-0.37,2.63-1.1c0.69-0.73,1.04-1.7,1.04-2.9h-3.55v-2.49H466.2z M486.01,67.92h-4.47v-7.47h-6.56v7.47h-4.47V50.73
		h4.47v7.07h6.56v-7.07h4.47V67.92z M499.33,67.92h-6.06V53.39h-4.57v-2.66h15.21v2.66h-4.57V67.92z M523.76,67.92h-4.47V50.73h9.78
		c2.01,0,3.49,0.51,4.46,1.52c0.97,1.01,1.46,2.21,1.46,3.58c0,1.57-0.53,2.84-1.57,3.82c-1.05,0.97-2.38,1.46-3.99,1.46h-5.66
		V67.92z M523.76,58.45h3.66c0.96,0,1.69-0.24,2.19-0.71c0.5-0.47,0.76-1.1,0.76-1.88c0-0.71-0.23-1.31-0.7-1.81
		c-0.47-0.5-1.31-0.76-2.53-0.76h-3.39V58.45z M553.38,67.92h-4.68l-1.37-4.09h-6.61l-1.35,4.09h-4.01l5.7-17.19h6.55L553.38,67.92z
		 M546.49,61.35l-2.51-7.67l-2.51,7.67H546.49z M572.37,67.92h-4.64l-2.67-7.06h-4.36v7.06h-4.47V50.73h10.19
		c2.07,0,3.6,0.47,4.57,1.4c0.97,0.94,1.46,2.15,1.46,3.63c0,2.21-1.03,3.73-3.1,4.56L572.37,67.92z M560.7,58.38h3.85
		c1.12,0,1.95-0.24,2.49-0.7c0.55-0.47,0.82-1.12,0.82-1.94c0-0.76-0.27-1.37-0.81-1.83c-0.54-0.47-1.29-0.7-2.25-0.7h-4.11V58.38z
		 M592.57,67.92h-4.68l-1.37-4.09h-6.61l-1.35,4.09h-4.01l5.7-17.19h6.55L592.57,67.92z M585.68,61.35l-2.51-7.67l-2.51,7.67H585.68
		z M595.34,67.92V50.73h9.07c2.34,0,4.22,0.83,5.64,2.49c1.42,1.66,2.13,3.7,2.13,6.14s-0.73,4.47-2.19,6.11
		c-1.46,1.64-3.55,2.46-6.27,2.46H595.34z M599.9,65.39h2.58c1.39,0,2.56-0.52,3.53-1.56c0.96-1.04,1.45-2.59,1.45-4.65
		c0-1.68-0.42-3.1-1.26-4.26c-0.84-1.16-1.96-1.75-3.34-1.75h-2.95V65.39z M621.68,67.92h-5.84V50.73h5.84V67.92z M642.04,59.13
		v8.79h-2.74l0.42-2.32c-1,1.72-4.59,2.8-7.38,2.58c-2.45-0.19-4.09-0.89-5.25-2.67c-1.15-1.78-1.73-3.84-1.73-6.18
		c0-5.25,3.45-8.87,8.71-8.87c1.73,0,4.52,0.5,5.64,1.51c1.12,1,1.82,2.25,2.12,3.75l-4.06,0.48c-0.5-2.1-1.71-3.15-3.61-3.15
		c-1.22,0-2.21,0.5-2.98,1.49c-0.77,0.99-1.15,2.52-1.15,4.57c0,4.34,1.36,6.51,4.08,6.51c1.06,0,1.93-0.37,2.63-1.1
		c0.69-0.73,1.04-1.7,1.04-2.9h-3.55v-2.49H642.04z M665.95,67.92h-4.53V52.87l-4.76,15.05h-1.63l-4.78-15.05v15.05h-3.9V50.73h6.22
		l3.6,11.07l3.54-11.07h6.24V67.92z M668.73,63.78l4.38-0.64c0.36,1.71,1.75,2.56,4.16,2.56c1.88,0,4.53-1.34,3.02-3.58
		c-0.58-0.86-2.03-1.04-2.95-1.26c-1.75-0.42-3.71-0.58-5.33-1.41c-1.49-0.76-2.37-2.21-2.37-3.89c0-1.54,0.57-2.77,1.71-3.7
		c1.14-0.93,3.97-1.39,5.75-1.39c1.48,0,4.17,0.32,5.33,0.97c1.16,0.65,1.9,1.56,2.22,2.75l-4.32,0.73
		c-0.45-1.3-1.51-1.95-3.17-1.95c-0.96,0-1.7,0.2-2.21,0.61c-0.8,0.64-1.04,1.81-0.33,2.61c0.96,1.09,2.98,1.16,4.31,1.36
		c1.57,0.24,3.2,0.52,4.54,1.43c1.23,0.85,1.88,2.3,1.88,3.77c0,1.69-0.64,3.02-1.91,3.99c-1.27,0.97-4.29,1.45-6.31,1.45
		c-1.7,0-4.57-0.36-5.85-1.07C670,66.4,669.15,65.29,668.73,63.78z"/>
	<rect x="388.28" y="75.87" style="fill:none;" width="312.49" height="29.06"/>
	
		<text transform="matrix(1 0 0 1 468.221 87.8813)" style="fill:#999999; font-family:'FranklinGothic-Medium'; font-size:17.9987px; letter-spacing:1;">home automation</text>
</g>
<g>
	<path class="st0" d="M71.88,64.13c-0.21,0-0.42-0.07-0.6-0.21c-0.23-0.18-0.37-0.46-0.37-0.76V51.55c0-0.44,0.3-0.83,0.73-0.94
		c22.06-5.43,35.78-0.19,36.35,0.04c0.37,0.15,0.61,0.5,0.61,0.9v11.62c0,0.33-0.17,0.64-0.45,0.82c-0.28,0.18-0.63,0.19-0.93,0.05
		l0,0c-0.12-0.06-12.01-5.59-35.12,0.07C72.03,64.12,71.95,64.13,71.88,64.13z M72.84,52.31v9.64c18.86-4.39,30.1-1.53,33.84-0.2
		v-9.51C103.84,51.32,91.31,47.93,72.84,52.31z"/>
	<path class="st0" d="M76.38,41.32c-0.23,0-0.46-0.08-0.63-0.24c-0.21-0.18-0.33-0.45-0.33-0.73V22.08c0-0.48,0.36-0.89,0.83-0.96
		c11.31-1.56,20.9-0.88,26.96-0.03c0.48,0.07,0.83,0.47,0.83,0.96v18.1c0,0.28-0.12,0.55-0.33,0.73c-0.21,0.18-0.49,0.27-0.77,0.23
		c-5.62-0.81-14.77-1.44-26.42,0.2C76.47,41.31,76.43,41.32,76.38,41.32z M77.35,22.93v16.32c10.63-1.39,19.15-0.93,24.76-0.2V22.89
		C96.3,22.14,87.57,21.61,77.35,22.93z"/>
	<path class="st0" d="M71.87,58.32c-0.43,0-0.82-0.29-0.93-0.72c-0.14-0.52,0.17-1.04,0.69-1.18c20.3-5.34,35.68-0.2,36.33,0.02
		c0.5,0.17,0.77,0.72,0.6,1.23c-0.17,0.5-0.72,0.77-1.23,0.6c-0.15-0.05-15.51-5.17-35.21,0.02C72.04,58.31,71.96,58.32,71.87,58.32
		z"/>
	<path class="st0" d="M76.38,23.05c-0.29,0-0.56-0.13-0.75-0.35c-0.21-0.26-0.27-0.61-0.16-0.93c0.03-0.1,3.45-9.46,14.01-10.08
		c0.06-0.01,0.11-0.01,0.17-0.01h0.15c0.06,0,0.11,0.01,0.17,0.01c10.57,0.61,13.98,9.98,14.01,10.08c0.11,0.32,0.05,0.67-0.16,0.93
		c-0.21,0.26-0.55,0.39-0.88,0.35c-12.99-1.8-26.3-0.02-26.43,0C76.47,23.05,76.42,23.05,76.38,23.05z M89.73,13.61
		c-6.92,0.35-10.38,4.91-11.73,7.32c3.87-0.4,13.59-1.16,23.46-0.02C100.12,18.48,96.7,13.95,89.73,13.61z"/>
	<path class="st0" d="M73.56,126.08l2.2-63.56c0.02-0.53-0.4-0.98-0.93-1c-0.53,0-0.98,0.4-1,0.93l-2.21,63.65
		C72.26,126.01,72.91,126.01,73.56,126.08z"/>
	<path class="st0" d="M107.75,134.02l-2.5-71.58c-0.02-0.52-0.45-0.93-0.96-0.93c-0.01,0-0.02,0-0.03,0c-0.53,0.02-0.95,0.47-0.93,1
		l2.51,72.11C106.44,134.34,107.08,134.14,107.75,134.02z"/>
	<path class="st0" d="M77.92,51.16c-0.53,0-0.96-0.43-0.96-0.96V40.15c0-0.53,0.43-0.96,0.96-0.96c0.53,0,0.96,0.43,0.96,0.96v10.04
		C78.89,50.73,78.46,51.16,77.92,51.16z"/>
	<path class="st0" d="M101.53,50.93c-0.53,0-0.96-0.43-0.96-0.96v-9.81c0-0.53,0.43-0.96,0.96-0.96c0.53,0,0.96,0.43,0.96,0.96v9.81
		C102.49,50.49,102.06,50.93,101.53,50.93z"/>
	<path class="st0" d="M91.64,40.23h-4.12c-0.27,0-0.53-0.12-0.72-0.32s-0.27-0.47-0.24-0.74l0.58-5.68
		c0.05-0.49,0.46-0.87,0.96-0.87h2.8c0.48,0,0.89,0.36,0.96,0.84l0.74,5.68c0.04,0.28-0.05,0.55-0.23,0.76
		C92.19,40.11,91.92,40.23,91.64,40.23z M88.59,38.3h1.96l-0.49-3.75h-1.08L88.59,38.3z"/>
	<path class="st0" d="M77.97,46.27c-0.46,0-0.87-0.33-0.95-0.8c-0.09-0.53,0.26-1.02,0.79-1.11c10.06-1.73,18.53-1.01,23.87-0.11
		c0.53,0.09,0.88,0.59,0.79,1.11c-0.09,0.53-0.58,0.88-1.11,0.79c-5.19-0.88-13.43-1.58-23.22,0.11
		C78.08,46.26,78.03,46.27,77.97,46.27z"/>
	<path class="st0" d="M94,80.54h-8.04c-0.27,0-0.52-0.11-0.7-0.3c-0.18-0.19-0.28-0.45-0.26-0.72l0.31-5.73
		c0.1-1.78,1.57-3.18,3.35-3.18h2.64c1.78,0,3.26,1.4,3.35,3.18l0.31,5.73c0.01,0.26-0.08,0.52-0.26,0.72
		C94.52,80.43,94.27,80.54,94,80.54z M86.98,78.61h6l-0.26-4.71c-0.04-0.76-0.67-1.35-1.43-1.35h-2.64c-0.76,0-1.39,0.59-1.43,1.35
		L86.98,78.61z"/>
</g>
<g>
	<path class="st0" d="M160.72,38.29c-0.01,0-0.01,0-0.02,0l-7.93-0.52c-0.13-0.01-0.23-0.12-0.22-0.26
		c0.01-0.13,0.12-0.24,0.26-0.22l7.93,0.52c0.13,0.01,0.23,0.12,0.22,0.26C160.95,38.19,160.85,38.29,160.72,38.29z"/>
	<path class="st0" d="M128.42,40.38c-0.01,0-0.03,0-0.04,0l-36.7-6.62c-0.13-0.02-0.21-0.14-0.2-0.27s0.13-0.22,0.25-0.21
		l55.32,3.63c0.13,0.01,0.23,0.12,0.22,0.26c-0.01,0.13-0.13,0.23-0.26,0.22l-51.06-3.35l32.5,5.87c0.13,0.02,0.22,0.15,0.19,0.28
		C128.64,40.3,128.54,40.38,128.42,40.38z"/>
	<path class="st0" d="M162.79,46.59c-0.01,0-0.03,0-0.04,0l-28.35-5.12c-0.13-0.02-0.22-0.15-0.19-0.28
		c0.02-0.13,0.15-0.22,0.28-0.19l28.35,5.12c0.13,0.02,0.22,0.15,0.19,0.28C163,46.5,162.9,46.59,162.79,46.59z"/>
	<path class="st0" d="M91.72,33.76c-0.12,0-0.23-0.09-0.24-0.21c-0.01-0.13,0.07-0.24,0.2-0.27l35.89-5.98
		c0.14-0.02,0.26,0.07,0.28,0.2c0.02,0.13-0.07,0.26-0.2,0.28L96.3,33l57.59-3.48c0.14-0.01,0.25,0.09,0.25,0.23
		c0.01,0.13-0.09,0.25-0.23,0.26l-62.18,3.76C91.73,33.76,91.73,33.76,91.72,33.76z"/>
	<path class="st0" d="M134.64,26.61c-0.12,0-0.22-0.08-0.24-0.2c-0.02-0.13,0.07-0.26,0.2-0.28l14.17-2.36
		c0.14-0.02,0.26,0.07,0.28,0.2c0.02,0.13-0.07,0.26-0.2,0.28l-14.17,2.36C134.67,26.61,134.66,26.61,134.64,26.61z"/>
	<path class="st0" d="M112.52,23.8c-0.09,0-0.18-0.05-0.22-0.14c-0.06-0.12-0.01-0.26,0.11-0.32l23-11.02
		c0.12-0.06,0.26-0.01,0.32,0.11c0.06,0.12,0.01,0.26-0.11,0.32l-23,11.02C112.59,23.79,112.55,23.8,112.52,23.8z"/>
	<path class="st0" d="M91.72,33.76c-0.1,0-0.19-0.06-0.22-0.15c-0.05-0.12,0.01-0.25,0.12-0.31L108,25.45
		c0.12-0.06,0.26-0.01,0.32,0.11c0.06,0.12,0.01,0.26-0.11,0.32l-13.44,6.44l47.91-14.77c0.13-0.04,0.26,0.03,0.3,0.16
		c0.04,0.13-0.03,0.26-0.16,0.3L91.79,33.75C91.77,33.76,91.75,33.76,91.72,33.76z"/>
</g>
<g>
	<path class="st0" d="M106.18,95.86v4.5h66.99c0.4-1.49,0.77-2.99,1.09-4.5H106.18z"/>
	<path class="st0" d="M106.18,104.22v8.36h62.67c1.2-2.72,2.26-5.51,3.18-8.36H106.18z"/>
	<path class="st0" d="M138.59,134.45c1.09,0.61,2.12,1.34,3.09,2.22c2.7,0.68,5.26,2.15,6.93,4.35c2.23-2.08,4.36-4.26,6.36-6.56
		H138.59z"/>
	<path class="st0" d="M106.18,116.76v12.86h52.69c3.02-4.03,5.7-8.33,8-12.86H106.18z"/>
	<path class="st0" d="M106.18,89.75v2.57h68.76c0.15-0.85,0.28-1.71,0.4-2.57H106.18z"/>
	<path class="st0" d="M104.9,81.07v0.64h71.19c0.01-0.21,0.02-0.43,0.02-0.64H104.9z"/>
	<path class="st0" d="M106.18,84.61v1.29h69.61c0.04-0.43,0.08-0.86,0.11-1.29H106.18z"/>
</g>
<g>
	<path class="st0" d="M18.39,38.29c-0.13,0-0.23-0.1-0.24-0.23c-0.01-0.13,0.09-0.25,0.22-0.26l7.93-0.52
		c0.13-0.01,0.25,0.09,0.26,0.22c0.01,0.13-0.09,0.25-0.22,0.26l-7.93,0.52C18.41,38.29,18.4,38.29,18.39,38.29z"/>
	<path class="st0" d="M50.69,40.38c-0.11,0-0.22-0.08-0.24-0.2c-0.02-0.13,0.06-0.26,0.19-0.28l32.5-5.87l-51.06,3.35
		c-0.14,0.01-0.25-0.09-0.26-0.22c-0.01-0.13,0.09-0.25,0.22-0.26l55.32-3.63c0.13-0.01,0.24,0.08,0.25,0.21s-0.07,0.24-0.2,0.27
		l-36.7,6.62C50.72,40.38,50.71,40.38,50.69,40.38z"/>
	<path class="st0" d="M16.33,46.59c-0.11,0-0.22-0.08-0.24-0.2c-0.02-0.13,0.06-0.26,0.19-0.28l28.35-5.12
		c0.13-0.02,0.26,0.06,0.28,0.19c0.02,0.13-0.06,0.26-0.19,0.28l-28.35,5.12C16.35,46.58,16.34,46.59,16.33,46.59z"/>
	<path class="st0" d="M87.39,33.76c0,0-0.01,0-0.01,0L25.19,30c-0.13-0.01-0.23-0.12-0.23-0.26c0.01-0.13,0.11-0.24,0.25-0.23
		L82.81,33l-31.35-5.22c-0.13-0.02-0.22-0.15-0.2-0.28c0.02-0.13,0.15-0.22,0.28-0.2l35.89,5.98c0.13,0.02,0.21,0.14,0.2,0.27
		C87.62,33.67,87.51,33.76,87.39,33.76z"/>
	<path class="st0" d="M44.47,26.61c-0.01,0-0.03,0-0.04,0l-14.18-2.36c-0.13-0.02-0.22-0.15-0.2-0.28c0.02-0.13,0.15-0.22,0.28-0.2
		l14.18,2.36c0.13,0.02,0.22,0.15,0.2,0.28C44.69,26.52,44.59,26.61,44.47,26.61z"/>
	<path class="st0" d="M66.6,23.8c-0.04,0-0.07-0.01-0.1-0.02l-23-11.02c-0.12-0.06-0.17-0.2-0.11-0.32c0.06-0.12,0.2-0.17,0.32-0.11
		l23,11.02c0.12,0.06,0.17,0.2,0.11,0.32C66.77,23.75,66.69,23.8,66.6,23.8z"/>
	<path class="st0" d="M87.39,33.76c-0.02,0-0.05,0-0.07-0.01L36.3,18.02c-0.13-0.04-0.2-0.17-0.16-0.3c0.04-0.13,0.17-0.2,0.3-0.16
		l47.91,14.77l-13.44-6.44c-0.12-0.06-0.17-0.2-0.11-0.32s0.2-0.17,0.32-0.11L87.5,33.3c0.11,0.05,0.17,0.19,0.12,0.31
		C87.58,33.7,87.49,33.76,87.39,33.76z"/>
</g>
<path class="st0" d="M104.61,163.53c-3.84-6.34-6.61-11.24-6.63-11.29l-0.16-0.28l-0.03-0.33c-1.24-14.47,3.62-17.83,4.18-18.17
	l0.32-0.14c4.84-1.54,20.59-4.39,30.85-2.34c5.5,1.1,11.7,4.13,17,8.31l-1.86,2.35c-4.94-3.9-10.68-6.71-15.73-7.72
	c-9.42-1.88-24.37,0.74-29.12,2.18c-0.54,0.5-3.58,3.78-2.68,14.94c0.64,1.13,3.14,5.49,6.43,10.93L104.61,163.53z"/>
<g>
	<path class="st0" d="M74.18,92.33v-2.57H3.75c0.12,0.86,0.25,1.72,0.4,2.57H74.18z"/>
	<path class="st0" d="M74.18,84.61h-71c0.03,0.43,0.07,0.86,0.11,1.29h70.88V84.61z"/>
	<path class="st0" d="M28.68,138.78c1.39-1.42,3.16-1.93,4.91-1.74c2.13-1.09,4.38-1.97,6.67-2.59H24.11
		c1.34,1.55,2.75,3.04,4.2,4.49C28.43,138.89,28.55,138.84,28.68,138.78z"/>
	<path class="st0" d="M60.97,129.12c1.59-0.47,3.16-1.2,4.71-1.66c2.41-0.71,4.9-1.22,7.39-1.58v-8.16c0-0.33,0.02-0.65,0.05-0.95
		H12.21c2.3,4.53,4.97,8.83,8,12.86h37.14C58.55,129.39,59.76,129.2,60.97,129.12z"/>
	<path class="st0" d="M74.18,100.36v-4.5H4.82c0.32,1.52,0.69,3.02,1.09,4.5H74.18z"/>
	<path class="st0" d="M3,81.71h71.18v-0.64H2.98C2.99,81.28,2.99,81.5,3,81.71z"/>
	<path class="st0" d="M73.52,112.58v-6.69c0-0.59,0.06-1.15,0.16-1.67H7.06c0.92,2.85,1.98,5.64,3.18,8.36H73.52z"/>
</g>
<path class="st0" d="M79.67,164.61l-2.24-1.99c7.6-8.54,11.61-17.36,12.23-18.8c0.88-10.65-0.96-15.23-1.6-16.47
	c-10.32-2.73-37.76,4.34-60.29,11.98l-0.96-2.84c11.34-3.85,49.38-16.07,62.69-11.85l0.44,0.14l0.28,0.36
	c0.38,0.47,3.63,5.03,2.42,19.18l-0.02,0.23l-0.09,0.21C92.35,145.17,88.27,154.94,79.67,164.61z"/>
<g>
	<path class="st0" d="M77.82,142.82c-0.2-0.19-0.51-0.18-0.71,0.01c-0.13,0.13-8.94,9.28-17.22,16.27c0.37,0.13,0.74,0.26,1.11,0.39
		c8.05-6.84,16.33-15.44,16.84-15.96C78.03,143.32,78.02,143.01,77.82,142.82z"/>
	<path class="st0" d="M84.8,129.94c-0.19,0.2-15.64,15.91-29.95,27.14c0.35,0.15,0.69,0.31,1.04,0.45
		c14.25-11.26,29.43-26.69,29.62-26.89c0.19-0.2,0.19-0.51-0.01-0.71C85.31,129.74,84.99,129.74,84.8,129.94z"/>
	<path class="st0" d="M50.4,135.07c-0.07-0.27-0.35-0.43-0.61-0.36c-0.6,0.16-11.98,3.19-18.93,6.69c0.26,0.24,0.53,0.48,0.79,0.72
		c6.94-3.39,18.25-6.4,18.39-6.44C50.31,135.61,50.47,135.34,50.4,135.07z"/>
</g>
<g>
	<path class="st0" d="M105.52,152.78c-0.15-0.23-0.46-0.3-0.69-0.15c-0.23,0.15-0.3,0.46-0.15,0.69c0.22,0.34,2.73,4.21,5.73,8.44
		c0.35-0.09,0.7-0.17,1.04-0.26C108.29,157.05,105.58,152.87,105.52,152.78z"/>
	<path class="st0" d="M107.15,137.55c-0.2-0.19-0.52-0.18-0.71,0.02c-0.19,0.2-0.18,0.52,0.02,0.71c0.16,0.16,9.9,9.49,18.39,18.54
		c0.32-0.14,0.65-0.29,0.97-0.44C117.45,147.42,107.82,138.19,107.15,137.55z"/>
	<path class="st0" d="M134.75,136.77c-0.25-0.11-0.55,0-0.66,0.25c-0.11,0.25,0,0.55,0.25,0.66c0.09,0.04,5.79,2.6,10.58,6.61
		c0.27-0.22,0.53-0.44,0.79-0.67C140.88,139.51,135.13,136.94,134.75,136.77z"/>
	<path class="st0" d="M116.18,139.93c-0.2-0.19-0.51-0.19-0.71,0.01c-0.19,0.2-0.19,0.51,0.01,0.71c0.12,0.12,7.19,7.08,13.68,14.09
		c0.31-0.16,0.62-0.32,0.92-0.49C123.67,147.32,116.67,140.42,116.18,139.93z"/>
</g>
</svg>
